<svg id="visual" viewBox="0 0 900 600" width="900" height="600" xmlns="http://www.w3.org/2000/svg" xmlns:xlink="http://www.w3.org/1999/xlink" version="1.1"><rect x="0" y="0" width="900" height="600" fill="#001220"></rect><defs><linearGradient id="grad1_0" x1="33.3%" y1="100%" x2="100%" y2="0%"><stop offset="20%" stop-color="#001220" stop-opacity="1"></stop><stop offset="80%" stop-color="#001220" stop-opacity="1"></stop></linearGradient></defs><defs><linearGradient id="grad2_0" x1="0%" y1="100%" x2="66.7%" y2="0%"><stop offset="20%" stop-color="#001220" stop-opacity="1"></stop><stop offset="80%" stop-color="#001220" stop-opacity="1"></stop></linearGradient></defs><g transform="translate(900, 600)"><path d="M-441 0C-438.5 -22.7 -435.9 -45.3 -435.6 -69C-435.2 -92.7 -437.1 -117.3 -432.7 -140.6C-428.4 -163.9 -417.9 -185.7 -406.3 -207C-394.7 -228.3 -382.1 -249.1 -364.9 -265.1C-347.6 -281.1 -325.8 -292.2 -309.7 -309.7C-293.6 -327.2 -283.1 -351 -265.1 -364.9C-247.1 -378.7 -221.5 -382.7 -199.8 -392C-178 -401.4 -160 -416.2 -139.4 -428.9C-118.8 -441.7 -95.6 -452.4 -71.9 -454C-48.3 -455.7 -24.1 -448.4 0 -441L0 0Z" fill="#6600FF"></path></g><g transform="translate(0, 0)"><path d="M439 0C439.8 23.4 440.7 46.9 436.6 69.1C432.5 91.4 423.4 112.5 419.4 136.3C415.4 160 416.4 186.4 405.4 206.6C394.4 226.8 371.4 240.8 353.5 256.9C335.6 272.9 322.9 290.9 308.3 308.3C293.7 325.7 277.4 342.6 259.2 356.8C241 370.9 220.8 382.3 200.2 392.9C179.6 403.6 158.4 413.4 136.6 420.4C114.7 427.3 92.2 431.5 69.3 437.5C46.4 443.6 23.2 451.7 0 459.7L0 0Z" fill="#6600FF"></path></g></svg>