<svg id="visual" viewBox="0 0 900 600" width="900" height="600" xmlns="http://www.w3.org/2000/svg" xmlns:xlink="http://www.w3.org/1999/xlink" version="1.1"><path d="M0 484L21.5 486.8C43 489.7 86 495.3 128.8 483.7C171.7 472 214.3 443 257.2 443.8C300 444.7 343 475.3 385.8 471.5C428.7 467.7 471.3 429.3 514.2 424.8C557 420.3 600 449.7 642.8 450.2C685.7 450.7 728.3 422.3 771.2 417C814 411.7 857 429.3 878.5 438.2L900 447L900 601L878.5 601C857 601 814 601 771.2 601C728.3 601 685.7 601 642.8 601C600 601 557 601 514.2 601C471.3 601 428.7 601 385.8 601C343 601 300 601 257.2 601C214.3 601 171.7 601 128.8 601C86 601 43 601 21.5 601L0 601Z" fill="#0066FF" stroke-linecap="round" stroke-linejoin="miter"></path></svg>